<svg width="400" height="400" viewBox="0 0 400 400" fill="none" xmlns="http://www.w3.org/2000/svg">
<path d="M25 200C25 103.35 103.35 25 200 25V25C296.65 25 375 103.35 375 200V200C375 296.65 296.65 375 200 375H25V200Z" fill="#684EDE"/>
<path d="M230.097 136.68C228.863 136.68 227.686 136.925 226.604 137.356C225.512 133.341 221.843 130.375 217.486 130.375C215.798 130.375 214.215 130.824 212.842 131.603C211.159 128.974 208.221 127.222 204.875 127.222C203.768 127.222 202.71 127.423 201.722 127.774V111.458C201.722 106.242 197.48 102 192.265 102C187.05 102 182.807 106.242 182.807 111.458V146.139V155.597V159.599L177.653 150.672C176.389 148.484 174.35 146.919 171.91 146.266C169.469 145.609 166.919 145.948 164.734 147.21C162.546 148.473 160.981 150.512 160.327 152.953C159.672 155.395 160.008 157.942 161.271 160.13L172.306 179.242C173.557 181.409 175.92 183.525 178.205 185.573C179.799 187.001 182.449 189.374 182.807 190.393L182.806 196.581C182.806 197.419 183.138 198.221 183.729 198.812C184.321 199.404 185.123 199.735 185.959 199.735H230.097C231.839 199.735 233.25 198.324 233.25 196.583V190.285C233.293 189.457 234.891 187.144 235.844 185.764C237.752 182.999 239.555 180.39 239.555 177.666V155.597V146.139C239.555 140.923 235.313 136.68 230.097 136.68ZM233.25 149.291V154.809V155.597V177.658C233.207 178.486 231.609 180.799 230.656 182.179C228.748 184.944 226.944 187.553 226.944 190.277V193.43H189.111V190.277C189.111 186.877 185.857 183.961 182.411 180.876C180.584 179.239 178.513 177.384 177.765 176.09L166.731 156.978C166.309 156.249 166.198 155.399 166.415 154.585C166.634 153.772 167.154 153.092 167.885 152.671C168.614 152.25 169.461 152.136 170.277 152.356C171.09 152.574 171.77 153.096 172.191 153.825L183.226 172.937C183.623 173.624 184.24 174.106 184.936 174.343C185.096 174.398 185.263 174.44 185.434 174.47C185.768 174.526 186.109 174.53 186.447 174.475C187.956 174.241 189.111 172.936 189.111 171.361V155.597V154.02V149.291V111.458C189.111 109.719 190.526 108.306 192.264 108.306C194.002 108.306 195.416 109.719 195.416 111.458V136.68V149.291C195.416 149.798 195.547 150.271 195.76 150.695C196.28 151.729 197.335 152.444 198.57 152.444C200.311 152.444 201.722 151.033 201.722 149.291V136.68C201.722 134.941 203.136 133.528 204.875 133.528C206.614 133.528 208.028 134.941 208.028 136.68V139.833V149.291C208.028 151.033 209.439 152.444 211.181 152.444C212.657 152.444 213.887 151.424 214.23 150.053C214.292 149.808 214.333 149.556 214.333 149.291V139.833C214.333 138.094 215.747 136.68 217.486 136.68C219.225 136.68 220.639 138.094 220.639 139.833V146.139V151.656V152.444C220.639 154.186 222.05 155.597 223.792 155.597C225.268 155.597 226.498 154.577 226.841 153.206C226.903 152.961 226.944 152.709 226.944 152.444V146.139C226.944 144.399 228.358 142.986 230.097 142.986C231.836 142.986 233.25 144.399 233.25 146.139V149.291Z" fill="white"/>
<path d="M161.893 121.837C161.897 121.839 161.896 121.842 161.896 121.842C161.896 121.842 161.893 121.849 161.897 121.851C161.897 121.851 161.897 121.851 161.902 121.852C162.67 123.692 164.783 124.566 166.632 123.804C168.484 123.038 169.362 120.918 168.594 119.07C168.591 119.061 168.589 119.061 168.589 119.048C166.792 114.699 166.801 109.902 168.605 105.551C170.41 101.192 173.822 97.7836 178.195 95.9674C180.044 95.2047 180.922 93.0874 180.154 91.24C179.393 89.3868 177.272 88.5098 175.421 89.2785L175.413 89.2517C162.695 94.5148 156.64 109.135 161.893 121.837Z" fill="white"/>
<path d="M221.539 121.837C221.534 121.839 221.535 121.842 221.535 121.842C221.535 121.842 221.539 121.849 221.534 121.851C221.534 121.851 221.534 121.851 221.531 121.852C220.759 123.692 218.649 124.566 216.8 123.804C214.947 123.038 214.069 120.918 214.839 119.07C214.842 119.061 214.843 119.061 214.843 119.048C216.641 114.699 216.631 109.902 214.825 105.551C213.024 101.192 209.61 97.7836 205.235 95.9674C203.388 95.2047 202.51 93.0874 203.278 91.24C204.042 89.3868 206.16 88.5098 208.012 89.2785L208.021 89.2517C220.735 94.5148 226.791 109.135 221.539 121.837Z" fill="white"/>
<path d="M106.812 292.836C106.812 291.547 106.883 290.363 107.023 289.285C107.188 288.184 107.422 287 107.727 285.734H114.793V288.652C114.793 290.27 114.887 291.699 115.074 292.941C115.285 294.184 115.613 295.238 116.059 296.105C116.527 296.949 117.137 297.594 117.887 298.039C118.66 298.461 119.598 298.672 120.699 298.672C122.434 298.672 123.758 298.203 124.672 297.266C125.586 296.305 126.043 294.91 126.043 293.082C126.043 292.145 125.973 291.289 125.832 290.516C125.715 289.719 125.492 288.934 125.164 288.16C124.859 287.387 124.438 286.578 123.898 285.734C123.359 284.867 122.668 283.906 121.824 282.852L112.332 271.566C110.645 269.41 109.344 267.242 108.43 265.062C107.516 262.859 107.059 260.516 107.059 258.031C107.059 256.039 107.363 254.211 107.973 252.547C108.605 250.883 109.508 249.453 110.68 248.258C111.852 247.039 113.293 246.102 115.004 245.445C116.738 244.766 118.695 244.426 120.875 244.426C123.523 244.426 125.727 244.801 127.484 245.551C129.266 246.301 130.684 247.285 131.738 248.504C132.793 249.723 133.531 251.094 133.953 252.617C134.398 254.117 134.621 255.629 134.621 257.152C134.621 258.441 134.516 259.637 134.305 260.738C134.117 261.816 133.895 263.012 133.637 264.324H126.605V261.477C126.605 258.289 126.148 255.852 125.234 254.164C124.32 252.453 122.832 251.598 120.77 251.598C119.059 251.598 117.781 252.078 116.938 253.039C116.094 253.977 115.672 255.242 115.672 256.836C115.672 257.68 115.73 258.441 115.848 259.121C115.988 259.801 116.176 260.434 116.41 261.02C116.668 261.582 116.973 262.133 117.324 262.672C117.676 263.211 118.074 263.773 118.52 264.359L129.102 277.156C131.023 279.664 132.5 282.078 133.531 284.398C134.562 286.695 135.078 289.133 135.078 291.711C135.078 293.844 134.738 295.766 134.059 297.477C133.402 299.188 132.453 300.641 131.211 301.836C129.969 303.031 128.469 303.957 126.711 304.613C124.953 305.246 122.973 305.562 120.77 305.562C118.051 305.562 115.789 305.199 113.984 304.473C112.203 303.746 110.773 302.785 109.695 301.59C108.641 300.395 107.891 299.035 107.445 297.512C107.023 295.988 106.812 294.43 106.812 292.836ZM153.465 305.527C149.387 305.527 146.27 303.852 144.113 300.5C141.98 297.148 140.914 292.039 140.914 285.172V276.031C140.914 272.961 141.137 270.336 141.582 268.156C142.027 265.953 142.613 264.113 143.34 262.637C144.09 261.137 144.934 259.953 145.871 259.086C146.832 258.219 147.816 257.562 148.824 257.117C149.832 256.648 150.828 256.355 151.812 256.238C152.797 256.098 153.699 256.027 154.52 256.027C156.16 256.027 157.66 256.25 159.02 256.695C160.379 257.117 161.551 257.773 162.535 258.664C163.52 259.531 164.281 260.633 164.82 261.969C165.359 263.305 165.629 264.875 165.629 266.68C165.629 267.805 165.57 268.777 165.453 269.598C165.359 270.395 165.219 271.168 165.031 271.918H157.93V270.301C157.93 267.863 157.637 265.965 157.051 264.605C156.488 263.223 155.551 262.531 154.238 262.531C153.512 262.531 152.879 262.707 152.34 263.059C151.801 263.387 151.344 263.961 150.969 264.781C150.617 265.602 150.348 266.703 150.16 268.086C149.996 269.469 149.914 271.203 149.914 273.289V287.035C149.914 289.145 149.984 290.938 150.125 292.414C150.266 293.891 150.512 295.098 150.863 296.035C151.215 296.949 151.684 297.617 152.27 298.039C152.855 298.461 153.582 298.672 154.449 298.672C154.895 298.672 155.328 298.566 155.75 298.355C156.172 298.121 156.535 297.746 156.84 297.23C157.168 296.715 157.426 296.035 157.613 295.191C157.824 294.324 157.93 293.258 157.93 291.992V290.48H165.594V292.344C165.594 296.938 164.574 300.289 162.535 302.398C160.52 304.484 157.496 305.527 153.465 305.527ZM172.836 256.59H179.34L180.113 261.512C181.098 259.684 182.223 258.312 183.488 257.398C184.777 256.484 186.09 256.027 187.426 256.027C189.98 256.027 191.867 256.812 193.086 258.383C194.305 259.953 194.914 262.309 194.914 265.449C194.914 265.848 194.879 266.328 194.809 266.891C194.762 267.43 194.68 268.004 194.562 268.613C194.469 269.199 194.34 269.797 194.176 270.406C194.035 270.992 193.883 271.531 193.719 272.023H187.531V267.523C187.531 266.539 187.461 265.73 187.32 265.098C187.203 264.465 187.039 263.961 186.828 263.586C186.617 263.188 186.371 262.918 186.09 262.777C185.809 262.613 185.504 262.531 185.176 262.531C184.473 262.531 183.816 262.766 183.207 263.234C182.621 263.68 182.129 264.312 181.73 265.133V305H172.836V256.59ZM212.738 305.527C211.707 305.527 210.652 305.445 209.574 305.281C208.52 305.117 207.488 304.777 206.48 304.262C205.496 303.746 204.559 303.008 203.668 302.047C202.801 301.086 202.039 299.82 201.383 298.25C200.727 296.68 200.211 294.746 199.836 292.449C199.461 290.152 199.273 287.41 199.273 284.223V276.629C199.273 273.488 199.461 270.805 199.836 268.578C200.234 266.328 200.762 264.441 201.418 262.918C202.098 261.395 202.883 260.188 203.773 259.297C204.664 258.383 205.602 257.691 206.586 257.223C207.594 256.73 208.625 256.414 209.68 256.273C210.734 256.109 211.766 256.027 212.773 256.027C213.734 256.027 214.73 256.098 215.762 256.238C216.793 256.379 217.801 256.684 218.785 257.152C219.77 257.598 220.695 258.277 221.562 259.191C222.453 260.082 223.227 261.289 223.883 262.812C224.562 264.336 225.09 266.234 225.465 268.508C225.863 270.758 226.062 273.465 226.062 276.629V284.223C226.062 287.363 225.863 290.07 225.465 292.344C225.066 294.617 224.527 296.539 223.848 298.109C223.168 299.68 222.383 300.957 221.492 301.941C220.602 302.902 219.664 303.652 218.68 304.191C217.695 304.73 216.688 305.082 215.656 305.246C214.648 305.434 213.676 305.527 212.738 305.527ZM212.809 298.672C213.605 298.672 214.273 298.473 214.812 298.074C215.375 297.652 215.82 296.973 216.148 296.035C216.5 295.098 216.746 293.867 216.887 292.344C217.051 290.797 217.133 288.887 217.133 286.613V274.695C217.133 272.422 217.051 270.512 216.887 268.965C216.746 267.418 216.5 266.176 216.148 265.238C215.82 264.277 215.375 263.586 214.812 263.164C214.273 262.742 213.605 262.531 212.809 262.531C211.965 262.531 211.25 262.742 210.664 263.164C210.102 263.586 209.633 264.277 209.258 265.238C208.883 266.176 208.613 267.418 208.449 268.965C208.285 270.512 208.203 272.422 208.203 274.695V286.613C208.203 288.887 208.285 290.797 208.449 292.344C208.613 293.867 208.883 295.098 209.258 296.035C209.633 296.973 210.102 297.652 210.664 298.074C211.25 298.473 211.965 298.672 212.809 298.672ZM242.832 307.742V320.645H233.938V256.59H240.898L241.707 261.688C242.105 261.031 242.574 260.363 243.113 259.684C243.676 259.004 244.32 258.406 245.047 257.891C245.797 257.352 246.629 256.918 247.543 256.59C248.48 256.238 249.523 256.062 250.672 256.062C251.164 256.062 251.75 256.109 252.43 256.203C253.133 256.297 253.848 256.531 254.574 256.906C255.324 257.281 256.062 257.844 256.789 258.594C257.539 259.32 258.195 260.328 258.758 261.617C259.344 262.906 259.812 264.512 260.164 266.434C260.539 268.355 260.727 270.688 260.727 273.43V288.09C260.727 290.832 260.539 293.164 260.164 295.086C259.812 297.008 259.344 298.613 258.758 299.902C258.172 301.191 257.504 302.211 256.754 302.961C256.004 303.711 255.242 304.273 254.469 304.648C253.695 305.023 252.945 305.258 252.219 305.352C251.492 305.469 250.859 305.527 250.32 305.527C248.445 305.527 246.875 305.164 245.609 304.438C244.367 303.711 243.348 302.832 242.551 301.801L242.832 307.742ZM242.832 295.121C243.02 295.59 243.242 296.035 243.5 296.457C243.781 296.879 244.098 297.254 244.449 297.582C244.824 297.91 245.234 298.18 245.68 298.391C246.148 298.578 246.688 298.672 247.297 298.672C247.953 298.672 248.551 298.555 249.09 298.32C249.629 298.062 250.098 297.617 250.496 296.984C250.895 296.328 251.199 295.426 251.41 294.277C251.645 293.129 251.762 291.652 251.762 289.848V271.32C251.762 269.516 251.645 268.051 251.41 266.926C251.199 265.777 250.895 264.875 250.496 264.219C250.121 263.562 249.664 263.117 249.125 262.883C248.586 262.648 247.988 262.531 247.332 262.531C246.207 262.531 245.281 262.871 244.555 263.551C243.852 264.207 243.277 264.98 242.832 265.871V295.121ZM280.414 305.527C278.328 305.527 276.477 305.141 274.859 304.367C273.266 303.594 271.918 302.387 270.816 300.746C269.715 299.105 268.883 297.008 268.32 294.453C267.758 291.875 267.477 288.781 267.477 285.172V276.031C267.477 272.961 267.699 270.336 268.145 268.156C268.613 265.953 269.211 264.113 269.938 262.637C270.688 261.137 271.543 259.953 272.504 259.086C273.488 258.219 274.496 257.562 275.527 257.117C276.559 256.648 277.578 256.355 278.586 256.238C279.617 256.098 280.566 256.027 281.434 256.027C283.027 256.027 284.562 256.273 286.039 256.766C287.516 257.234 288.816 258.055 289.941 259.227C291.066 260.375 291.957 261.922 292.613 263.867C293.293 265.812 293.633 268.238 293.633 271.145C293.633 272.129 293.598 273.125 293.527 274.133C293.48 275.141 293.41 276.137 293.316 277.121C293.223 278.082 293.094 279.02 292.93 279.934C292.789 280.848 292.637 281.691 292.473 282.465H276.406V287.387C276.406 289.496 276.488 291.277 276.652 292.73C276.816 294.16 277.086 295.32 277.461 296.211C277.859 297.078 278.387 297.711 279.043 298.109C279.723 298.484 280.566 298.672 281.574 298.672C282.113 298.672 282.641 298.566 283.156 298.355C283.672 298.121 284.117 297.746 284.492 297.23C284.891 296.715 285.207 296.035 285.441 295.191C285.676 294.324 285.793 293.258 285.793 291.992V290.48H293.211V292.344C293.211 296.938 292.109 300.289 289.906 302.398C287.727 304.484 284.562 305.527 280.414 305.527ZM285.336 276.488C285.359 276.23 285.383 275.891 285.406 275.469C285.43 275.023 285.441 274.566 285.441 274.098C285.465 273.629 285.477 273.172 285.477 272.727C285.477 272.258 285.477 271.859 285.477 271.531C285.477 268.344 285.102 266.047 284.352 264.641C283.602 263.234 282.488 262.531 281.012 262.531C280.238 262.531 279.559 262.719 278.973 263.094C278.387 263.445 277.906 264.055 277.531 264.922C277.156 265.766 276.875 266.891 276.688 268.297C276.5 269.703 276.406 271.449 276.406 273.535V276.488H285.336Z" fill="white"/>
</svg>
